<?xml version="1.0" encoding="UTF-8"?>
<svg xmlns="http://www.w3.org/2000/svg" width="210mm" height="297mm" viewBox="0 0 210 297">
<rect x="0" y="0" width="100%" height="100%" fill="#e6e6e6"/>
<path d="M 10.12570199999999,-98.32413705357845 L 87.08106319838058,-98.32413705357845 L 87.5,-98.24336371754606 L 87.5,71.15837294642154 L 10.544638801619442,71.15837294642154 L 10.12570199999999,71.07759961038914 Z" fill="white" stroke="#000" stroke-width="0.6"/>
<path d="M 199.874298,-98.32413705357845 L 122.91893680161942,-98.32413705357845 L 122.5,-98.24336371754606 L 122.5,71.15837294642154 L 199.45536119838056,71.15837294642154 L 199.874298,71.07759961038914 Z" fill="white" stroke="#000" stroke-width="0.6"/>
<rect x="87.5" y="-98.24336371754606" width="30" height="169.4017366639676" fill="white" stroke="#000" stroke-width="0.6"/>
<rect x="87.5" y="71.15837294642154" width="30" height="77.38201372159463" fill="white" stroke="#000" stroke-width="0.6"/>
<rect x="87.5" y="148.5403866680162" width="30" height="169.4017366639676" fill="white" stroke="#000" stroke-width="0.6"/>
<rect x="87.5" y="317.9421233319838" width="30" height="77.38201372159463" fill="white" stroke="#000" stroke-width="0.6"/>
<rect x="117.5" y="-98.24336371754606" width="5" height="169.4017366639676" fill="white" stroke="#000" stroke-width="0.6"/>
<path d="M 117.5,-98.24336371754606 L 117.5,71.15837294642154" fill="none" stroke="#000" stroke-width="0.4" stroke-dasharray="6,4"/>
<rect x="117.5" y="71.15837294642154" width="5" height="77.38201372159463" fill="white" stroke="#000" stroke-width="0.6"/>
<path d="M 117.5,71.15837294642154 L 117.5,148.54038666801617" fill="none" stroke="#000" stroke-width="0.4" stroke-dasharray="6,4"/>
<rect x="117.5" y="148.5403866680162" width="5" height="169.4017366639676" fill="white" stroke="#000" stroke-width="0.6"/>
<path d="M 117.5,148.5403866680162 L 117.5,317.9421233319838" fill="none" stroke="#000" stroke-width="0.4" stroke-dasharray="6,4"/>
<rect x="117.5" y="317.9421233319838" width="5" height="77.38201372159463" fill="white" stroke="#000" stroke-width="0.6"/>
<path d="M 117.5,317.9421233319838 L 117.5,395.3241370535784" fill="none" stroke="#000" stroke-width="0.4" stroke-dasharray="6,4"/>
</svg>
