<?xml version="1.0" encoding="UTF-8"?>
<svg xmlns="http://www.w3.org/2000/svg" width="96.81371016954743mm" height="299.4044724906267mm" viewBox="0 0 96.81371016954743 299.4044724906267">
<rect x="0" y="0" width="100%" height="100%" fill="white"/>
<path d="M -41.813710169547434,29.565547303020736 L 0.04682413197390645,0.5326638881326886 L 0.42605955186060385,0.6819241893170442 L 9.929339629928265,9.531310310756623 L 9.999999999999986,10 L 10.000000000000014,119.87755423636537 L 9.954992566916843,120.20744347562345 Z" fill="#ccc" stroke="#000" stroke-width="0.6"/>
<path d="M 86.81371016954743,29.565547303020736 L 44.953175868026094,0.5326638881326886 L 44.573940448139396,0.6819241893170442 L 35.070660370071735,9.531310310756623 L 35.000000000000014,10 L 34.999999999999986,119.87755423636537 L 35.04500743308316,120.20744347562345 Z" fill="#ccc" stroke="#000" stroke-width="0.6"/>
<rect x="10" y="10" width="25" height="109.87755423636537" fill="white" stroke="#000" stroke-width="0.6"/>
<rect x="10" y="119.87755423636537" width="25" height="0.33294530963960234" fill="white" stroke="#000" stroke-width="0.6"/>
<rect x="10" y="120.21049954600497" width="25" height="104.38367652454714" fill="white" stroke="#000" stroke-width="0.6"/>
<rect x="10" y="224.59417607055212" width="25" height="50.94322969140577" fill="white" stroke="#000" stroke-width="0.6"/>
<rect x="10" y="275.53740576195787" width="25" height="0.40755139701181764" fill="white" stroke="#000" stroke-width="0.6"/>
<rect x="10" y="275.9449571589697" width="25" height="12.985529137024995" fill="white" stroke="#000" stroke-width="0.6"/>
<rect x="10" y="288.9304862959947" width="25" height="0.47398619463200126" fill="white" stroke="#000" stroke-width="0.6"/>
</svg>
